<?xml version="1.0" standalone="no"?>
<!DOCTYPE svg PUBLIC "-//W3C//DTD SVG 20010904//EN"
 "http://www.w3.org/TR/2001/REC-SVG-20010904/DTD/svg10.dtd">
<svg version="1.0" xmlns="http://www.w3.org/2000/svg"
 width="493.000000pt" height="506.000000pt" viewBox="0 0 493.000000 506.000000"
 preserveAspectRatio="xMidYMid meet">

<g transform="translate(0.000000,506.000000) scale(0.100000,-0.100000)"
fill="#000000" stroke="none">
<path d="M2450 4895 l0 -125 25 0 25 0 0 125 0 125 -25 0 -25 0 0 -125z"/>
<path d="M2088 4973 c-24 -6 -23 -12 18 -135 35 -106 44 -117 74 -98 13 8 9
25 -25 125 -22 63 -42 114 -45 114 -3 -1 -13 -3 -22 -6z"/>
<path d="M2827 4948 c-8 -18 -26 -71 -42 -117 -22 -68 -25 -85 -14 -92 35 -22
35 -23 84 124 32 93 33 97 15 107 -27 14 -28 13 -43 -22z"/>
<path d="M1690 4806 c-7 -9 -8 -21 -3 -29 26 -42 128 -177 134 -177 16 0 39
32 31 44 -5 6 -37 48 -71 94 -34 45 -66 82 -70 82 -5 0 -14 -7 -21 -14z"/>
<path d="M3166 4733 c-36 -48 -65 -93 -66 -100 0 -7 9 -17 19 -23 17 -9 28 1
85 78 66 87 78 124 44 130 -11 2 -38 -26 -82 -85z"/>
<path d="M3607 4795 c-17 -24 -17 -26 3 -47 l20 -22 20 22 c11 12 20 24 20 27
0 5 -38 45 -42 45 -2 0 -11 -12 -21 -25z"/>
<path d="M683 4753 c-23 -8 -64 -34 -90 -58 l-48 -43 -51 11 c-46 9 -56 8
-100 -14 -64 -31 -94 -77 -94 -141 0 -74 39 -133 103 -157 l27 -11 0 -124 c0
-99 -3 -127 -14 -133 -12 -7 -15 -46 -17 -205 -2 -109 0 -201 4 -204 9 -10 84
-10 94 0 4 4 8 96 8 204 0 146 -3 196 -13 200 -9 3 -12 39 -12 133 0 114 2
130 18 136 39 14 86 58 104 100 20 46 18 83 -8 134 -12 24 -11 30 7 53 55 70
166 100 235 63 40 -21 61 -72 39 -94 -8 -8 -15 -26 -15 -39 0 -14 -7 -32 -15
-40 -9 -9 -15 -34 -15 -59 0 -37 -4 -46 -36 -70 -50 -38 -84 -114 -84 -187 l0
-58 205 0 205 0 0 58 c0 71 -36 150 -86 188 -30 24 -34 32 -34 74 0 33 -5 50
-15 54 -9 3 -15 19 -15 41 0 22 -6 38 -15 41 -8 4 -15 16 -15 29 0 12 -13 40
-29 62 -49 67 -136 89 -228 56z m-165 -153 c1 0 11 -15 22 -32 49 -80 1 -168
-91 -168 -41 0 -66 15 -84 50 -46 88 27 184 120 158 16 -4 31 -8 33 -8z m-58
-725 c0 -97 -4 -155 -10 -155 -6 0 -10 58 -10 155 0 97 4 155 10 155 6 0 10
-58 10 -155z"/>
<path d="M4067 4740 c-91 -23 -176 -95 -218 -185 -24 -49 -29 -74 -29 -132 0
-136 62 -238 178 -295 59 -30 76 -33 152 -33 102 0 155 21 229 90 68 64 95
128 95 230 1 71 -3 88 -32 147 -53 109 -148 172 -272 182 -36 3 -82 1 -103 -4z
m165 -52 c21 -6 55 -27 76 -45 l37 -34 -40 24 c-61 37 -112 50 -174 45 -100
-8 -182 -66 -227 -162 -26 -56 -33 -38 -9 22 28 65 103 131 175 153 39 11 118
10 162 -3z m18 -80 c26 -14 57 -41 75 -66 27 -39 30 -52 30 -116 0 -62 -4 -78
-28 -115 -70 -106 -214 -129 -311 -49 -117 96 -93 294 42 354 47 21 142 17
192 -8z"/>
<path d="M1167 4690 c-16 -19 -16 -21 0 -40 10 -11 22 -20 28 -20 6 0 16 9 23
20 10 16 10 24 0 40 -7 11 -17 20 -23 20 -6 0 -18 -9 -28 -20z"/>
<path d="M1504 4685 c-6 -15 14 -43 108 -148 42 -48 44 -48 61 -30 17 19 16
21 -14 59 -55 69 -120 134 -135 134 -8 0 -17 -7 -20 -15z"/>
<path d="M3339 4620 c-41 -45 -75 -85 -77 -89 -1 -4 6 -15 17 -25 18 -16 21
-14 92 64 44 49 74 90 74 103 0 44 -32 28 -106 -53z"/>
<path d="M2395 4683 c-128 -12 -289 -54 -408 -107 -220 -97 -483 -358 -568
-564 l-22 -52 -96 -1 c-53 -1 -107 -2 -121 -3 -14 -1 -52 -3 -86 -4 -71 -2
-118 -28 -143 -80 l-16 -32 -79 2 -78 3 -67 127 c-110 212 -101 299 -101 -946
0 -912 2 -1075 14 -1079 8 -3 17 -3 20 0 3 4 6 443 7 977 1 534 4 982 8 996 7
24 9 22 34 -27 l27 -52 0 -1146 0 -1145 -27 -1 c-16 0 -53 0 -84 1 -31 1 -74
-2 -94 -6 l-37 -7 5 -49 c13 -103 78 -191 176 -237 l56 -26 1760 0 1760 0 67
33 c104 51 152 119 173 245 6 35 5 37 -22 38 -15 0 -41 2 -58 3 -16 1 -47 3
-67 4 l-38 2 0 1099 c0 778 -3 1107 -11 1130 -16 46 -53 61 -151 61 l-83 0
-15 32 c-32 67 -50 72 -267 78 l-196 5 -42 83 c-64 123 -127 206 -237 314
-153 151 -331 251 -528 297 -85 20 -259 42 -302 39 -13 -1 -41 -3 -63 -5z
m230 -64 c340 -47 650 -254 816 -544 19 -33 40 -72 46 -87 l13 -28 -73 -1
c-285 -2 -1962 3 -1965 6 -2 2 11 30 29 62 154 272 378 460 659 552 137 45
328 61 475 40z m1340 -743 c13 -13 26 -39 30 -57 3 -19 4 -492 3 -1052 l-3
-1019 -24 -19 c-23 -19 -61 -19 -1480 -19 -1243 0 -1460 2 -1477 14 -19 14
-19 39 -24 1028 -3 557 -2 1032 1 1056 3 24 16 53 29 67 l23 25 1449 0 1449 0
24 -24z m-3030 -1111 c0 -958 1 -1023 18 -1048 9 -15 29 -35 44 -44 26 -17
109 -18 1493 -18 1418 0 1466 1 1496 19 68 41 64 -35 64 1095 l0 1021 79 0
c70 0 82 -3 95 -21 12 -18 14 -137 10 -892 -2 -480 -4 -974 -5 -1099 l0 -228
-1723 0 -1724 0 -4 23 c-2 12 -5 516 -7 1120 l-3 1098 83 -3 84 -3 0 -1020z
m1985 -1274 c0 -15 -47 -48 -93 -66 -37 -14 -87 -16 -358 -13 l-316 3 -48 30
c-27 17 -50 36 -53 43 -3 9 88 12 432 12 261 0 436 -4 436 -9z m-944 -22 c19
-22 19 -22 -3 -10 -16 8 -215 11 -722 11 -461 0 -701 3 -701 10 0 7 241 10
703 10 l704 0 19 -21z m2424 11 c0 -7 -238 -10 -694 -10 -604 0 -695 -2 -706
-15 -7 -8 -17 -15 -23 -15 -6 0 0 11 13 25 l23 25 694 0 c455 0 693 -3 693
-10z"/>
<path d="M1085 3795 c-49 -48 -16 -125 52 -125 37 0 73 38 73 77 0 32 -42 73
-75 73 -14 0 -37 -11 -50 -25z m85 -43 c-1 -18 -19 -34 -36 -30 -22 4 -31 37
-13 49 13 8 49 -6 49 -19z"/>
<path d="M1301 3803 c-54 -45 -24 -133 45 -133 38 0 84 36 84 65 0 24 -27 72
-45 79 -29 11 -62 6 -84 -11z m76 -49 c3 -8 -2 -23 -11 -32 -15 -15 -17 -15
-32 0 -21 21 -11 48 16 48 11 0 23 -7 27 -16z"/>
<path d="M1595 3795 c-48 -47 -19 -125 46 -125 37 0 79 39 79 75 0 33 -42 75
-75 75 -14 0 -37 -11 -50 -25z m69 -31 c19 -19 4 -57 -21 -52 -26 5 -39 34
-24 52 17 20 26 20 45 0z"/>
<path d="M2444 3796 c-11 -28 1 -51 25 -51 28 0 47 25 38 49 -8 20 -56 21 -63
2z"/>
<path d="M2854 3765 c-3 -8 -3 -19 1 -25 4 -7 168 -10 505 -10 414 0 499 2
503 14 13 34 -10 36 -510 36 -422 0 -494 -2 -499 -15z"/>
<path d="M1060 2876 l0 -753 41 -7 c50 -8 2734 -7 2784 1 l35 6 0 753 0 754
-1430 0 -1430 0 0 -754z m690 569 l0 -25 -265 0 -265 0 0 25 0 25 265 0 265 0
0 -25z m839 6 c6 -10 47 -33 91 -51 44 -18 80 -36 80 -40 0 -5 -56 -87 -114
-167 -1 -1 -26 7 -56 17 -74 26 -165 25 -235 -1 -31 -12 -58 -19 -59 -17 -21
26 -106 160 -106 167 0 5 32 22 71 38 39 15 80 38 92 50 20 21 32 23 124 23
90 0 104 -2 112 -19z m991 -6 l0 -25 -220 0 -220 0 0 25 0 25 220 0 220 0 0
-25z m-1412 -187 l74 -100 -35 -37 c-50 -53 -76 -95 -97 -154 l-18 -52 -86 -3
-86 -3 0 34 c0 19 7 56 15 83 l15 49 -30 25 c-17 14 -30 29 -30 33 0 35 164
228 192 226 7 0 46 -46 86 -101z m768 39 c34 -35 76 -88 93 -118 l31 -54 -31
-25 -31 -26 16 -74 c8 -40 13 -77 10 -82 -7 -11 -174 -10 -174 2 0 36 -48 125
-96 179 l-56 61 54 68 c30 37 64 82 77 100 12 17 27 32 34 32 6 0 39 -28 73
-63z m834 -22 l0 -25 -255 0 -255 0 0 25 0 25 255 0 255 0 0 -25z m-1165 -134
c149 -71 224 -227 180 -376 -43 -149 -161 -238 -315 -238 -93 0 -168 32 -228
97 -72 78 -87 118 -87 226 0 107 15 147 82 221 62 68 131 97 238 98 58 1 81
-4 130 -28z m-905 -156 l0 -25 -240 0 -240 0 0 25 0 25 240 0 240 0 0 -25z
m2065 -5 l0 -25 -252 -3 -253 -2 0 25 0 25 233 3 c127 1 241 3 252 2 15 0 20
-7 20 -25z m-2075 -137 l0 -28 -232 2 -233 3 -3 25 -3 25 235 0 236 0 0 -27z
m1995 17 c3 -5 2 -18 -4 -27 -9 -16 -29 -18 -215 -18 l-206 0 0 28 0 27 209 0
c128 0 212 -4 216 -10z m-1589 -62 c5 -29 8 -57 9 -61 0 -8 -217 -107 -234
-107 -14 0 -41 90 -48 158 l-6 62 136 0 135 0 8 -52z m1034 36 c0 -38 -43
-196 -55 -200 -11 -5 -43 8 -178 70 l-58 27 6 47 c4 26 8 53 10 60 3 9 40 12
140 12 118 0 135 -2 135 -16z m-1425 -134 l0 -25 -238 -3 c-205 -2 -238 0
-243 13 -4 8 -4 22 0 30 5 13 38 15 243 13 l238 -3 0 -25z m435 -38 c0 -5 25
-36 56 -70 l56 -62 -87 -105 -86 -105 -38 30 c-39 32 -94 100 -130 161 l-22
37 113 60 c112 60 138 70 138 54z m792 -49 c61 -32 112 -63 115 -70 7 -19 -60
-114 -124 -174 l-56 -53 -26 34 c-14 18 -52 64 -83 102 -32 38 -58 74 -58 79
0 6 11 20 25 31 14 11 39 39 56 64 16 24 33 44 36 44 3 0 55 -26 115 -57z
m838 -8 l0 -25 -255 0 -255 0 0 25 0 25 255 0 255 0 0 -25z m-2252 -52 c3 -23
3 -23 -147 -23 l-151 0 0 25 0 26 148 -3 c144 -3 147 -3 150 -25z m846 -68
c64 -19 159 -19 225 1 29 8 54 14 55 12 2 -2 27 -38 55 -82 35 -52 50 -81 43
-88 -5 -5 -54 -28 -108 -50 -93 -37 -104 -39 -184 -36 -76 3 -95 8 -173 46
-82 40 -88 45 -75 62 7 10 33 48 58 84 25 36 47 65 50 66 3 0 27 -7 54 -15z
m1406 -160 l0 -25 -255 0 -255 0 0 25 0 25 255 0 255 0 0 -25z m-2032 -7 l-3
-23 -257 -3 -258 -2 0 25 0 25 261 0 260 0 -3 -22z"/>
<path d="M1222 1957 c-32 -34 -30 -89 4 -116 54 -42 120 -16 130 51 5 30 2 41
-19 62 -34 34 -85 35 -115 3z m82 -33 c21 -20 20 -27 -5 -50 -15 -14 -24 -16
-37 -8 -22 14 -27 41 -12 59 16 19 35 19 54 -1z"/>
<path d="M3652 1960 c-48 -45 -14 -140 50 -140 40 0 57 10 74 42 41 79 -60
158 -124 98z m83 -50 c8 -27 -1 -40 -30 -40 -25 0 -38 21 -29 45 9 22 51 19
59 -5z"/>
<path d="M1720 1905 l0 -55 285 0 285 0 0 55 0 55 -285 0 -285 0 0 -55z"/>
<path d="M2694 1946 c-3 -8 -4 -31 -2 -52 l3 -39 278 -3 277 -2 0 55 0 55
-275 0 c-227 0 -277 -2 -281 -14z"/>
<path d="M4607 4590 c-14 -17 -15 -24 -5 -40 16 -25 29 -25 51 0 16 19 16 21
-3 40 -24 24 -22 24 -43 0z"/>
<path d="M1386 4574 c-9 -8 -16 -19 -16 -23 0 -4 39 -42 87 -84 88 -77 88 -77
108 -57 20 20 20 20 -50 83 -111 100 -111 100 -129 81z"/>
<path d="M3455 4519 c-44 -39 -81 -76 -83 -83 -2 -7 4 -19 13 -26 17 -14 46 4
143 95 49 46 55 55 43 69 -7 9 -19 16 -25 15 -6 0 -47 -32 -91 -70z"/>
<path d="M1266 4334 c-3 -9 -4 -20 -1 -24 7 -11 144 -90 156 -90 4 0 13 10 20
21 13 24 16 21 -78 74 -68 39 -88 43 -97 19z"/>
<path d="M3585 4315 c-71 -40 -84 -57 -65 -80 16 -19 20 -17 111 35 61 36 68
43 59 60 -15 27 -35 24 -105 -15z"/>
<path d="M1217 4100 c-6 -24 11 -35 67 -45 28 -6 41 -4 47 6 17 26 9 37 -35
48 -62 15 -73 14 -79 -9z"/>
<path d="M3655 4111 c-23 -5 -30 -12 -30 -31 0 -30 19 -35 75 -20 34 9 41 15
38 33 -3 24 -30 30 -83 18z"/>
<path d="M210 4080 c0 -12 -10 -25 -25 -32 -30 -13 -32 -24 -6 -33 11 -3 23
-15 26 -26 8 -25 25 -24 32 1 3 11 16 23 29 26 29 8 31 20 3 29 -11 4 -24 18
-29 31 -11 29 -30 32 -30 4z"/>
<path d="M4670 4065 c0 -7 -8 -18 -17 -24 -17 -9 -16 -11 1 -30 24 -26 38 -26
60 -2 16 18 16 20 -7 45 -28 29 -37 32 -37 11z"/>
<path d="M4377 4024 c-4 -4 -7 -38 -7 -76 0 -61 2 -68 19 -68 11 0 23 9 26 20
8 25 46 26 68 2 25 -27 21 -37 -22 -71 -38 -30 -40 -35 -46 -104 -4 -39 -9
-291 -11 -560 l-4 -488 24 -24 c30 -30 56 -32 87 -6 l24 19 3 488 c2 472 2
489 -17 515 l-20 26 40 39 c61 59 55 110 -24 192 -29 29 -49 42 -68 42 -23 0
-28 5 -31 27 -3 27 -26 41 -41 27z m163 -212 c0 -17 -48 -72 -63 -72 -18 0 -4
47 21 67 33 27 42 28 42 5z m-50 -645 c1 -257 -2 -472 -5 -477 -9 -15 -32 -12
-39 6 -3 9 -6 220 -6 470 0 465 4 515 36 482 11 -11 14 -97 14 -481z"/>
<path d="M4761 3755 l-50 -47 -3 -152 c-3 -142 -4 -151 -23 -154 -11 -2 -28
-11 -37 -20 -17 -14 -18 -45 -18 -371 0 -389 0 -391 59 -425 31 -18 37 -18 75
-5 75 26 76 33 76 429 0 372 -2 385 -53 392 -21 3 -22 7 -25 142 l-3 140 43
43 c39 40 41 44 26 59 -15 15 -20 13 -67 -31z m22 -419 c8 -21 -14 -36 -54
-36 -36 0 -57 19 -43 41 9 15 91 11 97 -5z m-3 -350 l0 -254 -46 -4 c-25 -2
-47 -1 -50 1 -2 2 -4 118 -4 258 l0 253 50 0 50 0 0 -254z m0 -336 c0 -18 -50
-35 -68 -24 -33 21 -25 34 22 34 25 0 46 -5 46 -10z"/>
<path d="M4742 2915 c0 -16 2 -22 5 -12 2 9 2 23 0 30 -3 6 -5 -1 -5 -18z"/>
<path d="M140 3680 c-7 -4 -15 -834 -10 -1082 0 -28 1 -28 65 -28 l65 0 -2
558 -3 557 -53 0 c-29 1 -57 -2 -62 -5z m73 -55 c-4 -15 -36 -12 -41 3 -3 9 3
13 19 10 13 -1 23 -7 22 -13z m-5 -506 c-2 -281 -7 -434 -13 -434 -11 0 -20
847 -10 874 4 9 9 11 15 5 7 -7 9 -171 8 -445z m7 -489 c-3 -5 -15 -10 -26
-10 -10 0 -19 5 -19 10 0 6 12 10 26 10 14 0 23 -4 19 -10z"/>
<path d="M380 3570 c-19 -19 -20 -35 -22 -377 -1 -197 -3 -378 -4 -403 -1 -25
-2 -75 -3 -111 -1 -58 -4 -67 -21 -72 -20 -5 -20 -14 -20 -426 0 -458 1 -467
55 -509 50 -39 120 -20 149 42 14 30 16 86 16 460 0 370 -2 427 -15 432 -13 5
-15 67 -15 471 l0 464 -25 24 c-29 30 -68 32 -95 5z m70 -90 c0 -57 -1 -60
-25 -60 -24 0 -25 3 -25 53 0 58 4 67 32 67 15 0 18 -8 18 -60z m0 -490 l0
-380 -25 0 -25 0 0 380 0 380 25 0 25 0 0 -380z m-48 -437 c-28 -4 -31 -7 -26
-29 4 -14 2 -24 -5 -24 -6 0 -11 14 -11 30 0 28 2 30 38 28 36 -1 37 -1 4 -5z
m-23 -168 c1 -33 -2 -55 -8 -55 -7 0 -11 23 -11 55 0 30 4 55 8 55 5 0 10 -25
11 -55z m1 -135 c0 -11 -4 -20 -10 -20 -5 0 -10 9 -10 20 0 11 5 20 10 20 6 0
10 -9 10 -20z m2 -110 c-6 -44 -22 -47 -22 -6 0 23 5 36 13 36 9 0 12 -10 9
-30z m-15 -202 c-2 -18 -4 -6 -4 27 0 33 2 48 4 33 2 -15 2 -42 0 -60z m13
-103 c0 -8 -4 -15 -10 -15 -5 0 -10 7 -10 15 0 8 5 15 10 15 6 0 10 -7 10 -15z"/>
<path d="M4416 2389 c-20 -50 -36 -97 -36 -105 0 -8 9 -33 21 -55 21 -41 21
-41 1 -88 -46 -109 -57 -259 -21 -305 45 -58 54 -53 77 41 34 137 42 127 42
-55 l0 -162 25 0 25 0 1 168 c1 159 1 165 16 132 8 -19 22 -65 31 -102 9 -38
19 -68 23 -68 4 0 21 14 39 30 l32 30 -4 103 c-4 71 -12 122 -28 169 l-23 67
23 43 23 44 -33 92 c-42 118 -54 129 -79 71 -27 -63 -34 -124 -17 -138 12 -10
12 -16 -2 -42 -21 -36 -29 -36 -44 -3 -9 19 -9 33 -1 54 16 43 -18 170 -46
170 -5 0 -25 -41 -45 -91z m35 -80 c-15 -31 -21 -38 -21 -22 0 28 34 101 38
81 1 -8 -6 -34 -17 -59z m168 -9 c0 -9 -4 -8 -9 5 -5 11 -9 27 -9 35 0 9 4 8
9 -5 5 -11 9 -27 9 -35z m-61 -142 c2 -16 -1 -28 -6 -28 -5 0 -8 10 -8 23 1
30 -27 28 -34 -3 -5 -21 -7 -22 -13 -7 -11 29 3 48 32 45 20 -2 27 -9 29 -30z
m-109 -64 c-4 -5 -13 -21 -19 -35 -9 -20 -10 -17 -5 20 7 55 16 71 25 45 4
-10 4 -24 -1 -30z m170 -2 c0 -11 -2 -13 -6 -4 -4 10 -9 9 -24 -4 -24 -22 -25
-7 -1 16 20 20 32 16 31 -8z"/>
<path d="M4772 2340 c-26 -35 -27 -40 -7 -40 8 0 15 -7 15 -15 0 -22 13 -18
40 10 20 21 21 25 6 31 -9 3 -16 12 -16 19 0 26 -17 24 -38 -5z"/>
<path d="M140 2309 c0 -7 -7 -17 -17 -24 -15 -11 -14 -14 6 -34 l23 -23 24 23
23 22 -22 23 c-24 26 -37 30 -37 13z"/>
<path d="M4670 1445 c-17 -9 -30 -10 -47 -2 -29 13 -38 5 -24 -22 8 -14 8 -27
-1 -45 -14 -33 -5 -43 26 -27 17 10 29 10 44 2 31 -17 35 -14 28 24 -4 19 -2
44 4 54 13 26 1 33 -30 16z"/>
<path d="M268 1368 l-4 -38 41 0 c40 0 41 1 42 34 1 32 -1 34 -37 38 -38 3
-38 3 -42 -34z"/>
<path d="M525 1066 c-151 -38 -245 -157 -253 -318 -4 -69 -1 -84 25 -140 38
-80 99 -143 171 -176 46 -22 72 -26 137 -27 71 0 88 4 147 33 74 36 132 95
169 170 34 69 34 197 -1 267 -73 149 -242 231 -395 191z m176 -51 c104 -36
183 -130 196 -232 4 -38 2 -52 -11 -62 -9 -7 -16 -22 -16 -33 0 -36 -54 -120
-99 -155 -112 -85 -262 -77 -363 18 -42 40 -65 82 -83 153 -15 59 -10 100 24
168 59 123 220 188 352 143z"/>
<path d="M577 732 c-14 -15 -15 -19 -2 -19 8 0 12 4 9 8 -2 4 2 9 8 12 7 2 10
7 7 11 -3 3 -13 -2 -22 -12z"/>
<path d="M1074 1037 c-2 -7 -3 -62 -2 -123 l3 -109 334 0 335 0 5 25 c3 14 5
69 3 123 l-3 97 -335 0 c-267 0 -336 -3 -340 -13z m624 -104 l3 -73 -291 0
-290 0 0 75 0 75 288 -2 287 -3 3 -72z"/>
<path d="M2932 1038 c-15 -15 -17 -555 -2 -578 7 -11 35 -16 117 -18 97 -3
111 -1 133 16 l25 20 3 259 c2 160 -1 270 -7 286 l-11 27 -123 0 c-82 0 -127
-4 -135 -12z m218 -48 c0 -6 -34 -10 -83 -10 l-83 0 4 -202 c2 -120 0 -217 -6
-238 -8 -26 -10 28 -11 213 l-1 247 90 0 c53 0 90 -4 90 -10z"/>
<path d="M2435 1031 c-180 -47 -275 -242 -207 -422 10 -24 5 -31 -54 -90 l-64
-63 22 -23 21 -23 63 61 64 60 38 -31 c83 -66 206 -88 307 -53 33 11 68 35
106 72 47 46 60 67 74 115 59 204 -68 393 -270 402 -38 2 -83 0 -100 -5z m191
-69 c21 -11 50 -33 64 -48 l25 -27 -37 27 c-43 32 -116 56 -167 56 -77 -1
-163 -49 -205 -114 -14 -22 -26 -33 -26 -25 0 42 92 127 160 148 50 15 140 7
186 -17z m-38 -102 c67 -41 90 -124 55 -197 -25 -54 -66 -75 -136 -70 -51 3
-62 8 -94 39 -31 31 -37 45 -41 91 -5 65 14 109 61 137 42 26 112 26 155 0z"/>
<path d="M3744 1026 c-10 -25 0 -61 18 -64 9 -2 19 5 23 17 5 18 15 21 64 21
76 0 86 -11 66 -78 l-16 -51 -77 -3 c-69 -3 -77 -5 -77 -23 0 -19 8 -20 187
-23 l187 -2 41 55 c22 30 45 55 50 55 5 0 28 -25 51 -55 l41 -55 177 0 c178 0
206 5 194 36 -4 10 -26 14 -82 14 l-78 0 -13 55 c-7 30 -11 57 -9 59 2 2 35 7
72 11 64 6 69 5 74 -14 6 -23 11 -25 31 -12 8 5 12 21 10 37 l-3 29 -100 3
c-97 3 -101 2 -121 -23 l-21 -26 -224 0 -224 0 -20 25 c-20 25 -26 26 -118 26
-75 0 -99 -3 -103 -14z m396 -95 c0 -4 -9 -20 -21 -35 -19 -24 -26 -26 -95
-26 -41 0 -74 4 -74 9 0 5 4 21 10 35 9 25 12 26 95 26 47 0 85 -4 85 -9z
m314 -7 c3 -9 6 -24 6 -35 0 -17 -8 -19 -69 -19 -65 0 -71 2 -90 29 -12 16
-21 32 -21 35 0 3 38 6 84 6 67 0 85 -3 90 -16z"/>
<path d="M3402 985 c-71 -59 -32 -175 58 -175 29 0 77 27 90 49 24 46 3 114
-41 137 -41 21 -74 17 -107 -11z"/>
<path d="M1967 791 c-5 -22 -14 -32 -42 -41 -40 -13 -48 -40 -11 -40 30 0 56
-24 56 -51 0 -31 34 -20 38 13 3 21 10 28 39 35 50 12 51 27 4 45 -28 11 -40
23 -43 39 -5 36 -34 36 -41 0z"/>
<path d="M1072 633 l3 -128 38 -3 c35 -3 37 -5 37 -38 0 -27 4 -34 19 -34 15
0 21 8 23 32 4 47 35 51 40 6 2 -22 9 -34 21 -36 14 -3 17 4 17 33 0 32 3 36
23 33 17 -2 23 -11 25 -35 4 -36 32 -47 32 -14 0 33 11 51 31 51 15 0 19 -7
19 -35 0 -28 4 -35 20 -35 16 0 20 7 20 35 0 28 4 35 20 35 16 0 20 -7 20 -35
0 -28 4 -35 20 -35 16 0 20 7 20 35 0 28 4 35 20 35 16 0 20 -7 20 -35 0 -28
4 -35 19 -35 15 0 21 8 23 32 2 22 9 34 21 36 14 3 17 -4 17 -32 0 -29 4 -36
20 -36 16 0 20 7 20 35 0 33 2 35 34 35 31 0 34 3 41 37 3 20 3 79 0 130 l-7
93 -339 0 -340 0 3 -127z m633 67 c-4 -6 -115 -10 -301 -10 -189 0 -294 4
-294 10 0 6 107 10 301 10 197 0 298 -3 294 -10z"/>
<path d="M3913 716 c-34 -15 -53 -43 -63 -91 -5 -25 -12 -31 -47 -39 -23 -5
-45 -16 -47 -23 -6 -15 31 -33 70 -33 13 0 24 -4 24 -10 0 -5 -6 -10 -14 -10
-15 0 -29 -27 -21 -40 3 -5 47 -6 98 -3 116 7 158 27 199 94 l31 49 73 0 c65
0 73 -2 79 -21 11 -35 74 -97 108 -108 18 -5 70 -11 117 -13 75 -3 85 -1 88
15 2 12 -4 20 -17 24 -33 8 -25 20 19 27 66 10 64 55 -1 56 -23 0 -27 5 -33
38 -11 74 -66 102 -195 102 -93 0 -111 -8 -111 -47 0 -21 -4 -23 -59 -23 l-60
0 -3 33 -3 32 -100 2 c-68 2 -110 -2 -132 -11z m187 -49 c0 -24 -60 -108 -72
-101 -7 4 -8 3 -4 -4 17 -28 -91 -45 -113 -18 -15 18 -11 76 6 97 9 11 26 15
54 13 32 -2 39 0 35 12 -4 11 5 14 44 14 34 0 50 -4 50 -13z m300 3 c0 -5 -5
-10 -11 -10 -5 0 -8 -4 -5 -8 3 -5 31 -10 62 -11 32 -1 61 -4 66 -7 12 -8 9
-79 -4 -92 -36 -36 -128 5 -158 71 -27 59 -26 67 15 67 19 0 35 -4 35 -10z"/>
<path d="M4380 600 c-13 -8 -12 -10 3 -10 9 0 17 5 17 10 0 12 -1 12 -20 0z"/>
<path d="M4641 716 c-15 -18 -3 -48 18 -44 21 4 27 44 7 51 -8 3 -19 0 -25 -7z"/>
<path d="M3397 699 c-38 -29 -52 -88 -33 -134 18 -42 72 -70 116 -60 34 7 75
51 84 87 8 35 -14 90 -45 112 -33 22 -91 20 -122 -5z m91 -45 c33 -23 26 -64
-12 -83 -27 -13 -31 -12 -48 9 -22 27 -23 54 -2 74 20 20 34 20 62 0z"/>
<path d="M3444 616 c-19 -15 -19 -15 0 -12 11 2 22 8 24 14 5 16 0 15 -24 -2z"/>
<path d="M3744 705 c-8 -20 4 -35 27 -35 14 0 19 7 19 25 0 18 -5 25 -20 25
-11 0 -23 -7 -26 -15z"/>
<path d="M313 324 c-3 -9 0 -20 8 -25 8 -5 933 -9 2156 -9 1939 0 2143 1 2157
16 9 8 14 20 11 25 -4 5 -863 9 -2166 9 -1971 0 -2160 -1 -2166 -16z"/>
<path d="M1434 95 c-3 -8 -3 -19 1 -25 9 -14 909 -14 936 1 16 8 18 13 8 25
-18 21 -937 21 -945 -1z"/>
<path d="M2485 100 c-4 -6 -1 -17 5 -25 19 -22 1001 -22 1020 0 6 8 9 19 5 25
-9 14 -1021 14 -1030 0z"/>
</g>
</svg>
